<svg width="154" height="17" viewBox="0 0 154 17" fill="none" xmlns="http://www.w3.org/2000/svg">
<path d="M4.66 16.74C3.88667 16.74 3.14667 16.6067 2.44 16.34C1.74667 16.0733 1.18 15.6667 0.74 15.12C0.3 14.5733 0.08 13.8933 0.08 13.08C0.08 12.36 0.24 11.8 0.56 11.4C0.88 10.9867 1.28 10.7 1.76 10.54C2.24 10.38 2.70667 10.3 3.16 10.3C2.73333 10.7533 2.40667 11.22 2.18 11.7C1.96667 12.18 1.86 12.64 1.86 13.08C1.86 13.5333 1.97333 13.96 2.2 14.36C2.44 14.7467 2.79333 15.06 3.26 15.3C3.72667 15.5533 4.30667 15.68 5 15.68C5.6 15.68 6.18 15.58 6.74 15.38C7.31333 15.18 7.78 14.88 8.14 14.48C8.51333 14.08 8.7 13.58 8.7 12.98C8.7 12.4333 8.54 11.9667 8.22 11.58C7.91333 11.18 7.51333 10.8267 7.02 10.52C6.52667 10.2 6.00667 9.9 5.46 9.62C4.91333 9.32667 4.39333 9.01333 3.9 8.68C3.40667 8.34667 3 7.96 2.68 7.52C2.37333 7.08 2.22 6.55333 2.22 5.94C2.22 5.39333 2.35333 4.81333 2.62 4.2C2.9 3.57333 3.29333 2.98667 3.8 2.44C4.30667 1.89333 4.92 1.45333 5.64 1.12C6.36 0.773333 7.16 0.599999 8.04 0.599999C8.96 0.599999 9.60667 0.793333 9.98 1.18C10.3533 1.56667 10.54 2.07333 10.54 2.7C10.54 3.19333 10.4533 3.72 10.28 4.28C10.1067 4.84 9.89333 5.37333 9.64 5.88C9.4 6.38667 9.16667 6.82 8.94 7.18C8.64667 7.11333 8.42667 7 8.28 6.84C8.13333 6.66667 8.06 6.44 8.06 6.16C8.06 5.88 8.11333 5.56667 8.22 5.22C8.34 4.87333 8.47333 4.51333 8.62 4.14C8.78 3.76667 8.91333 3.40667 9.02 3.06C9.14 2.7 9.2 2.38667 9.2 2.12C9.2 1.88 9.12667 1.69333 8.98 1.56C8.84667 1.42667 8.56667 1.36 8.14 1.36C7.5 1.36 6.91333 1.5 6.38 1.78C5.84667 2.06 5.38 2.41333 4.98 2.84C4.59333 3.26667 4.29333 3.72 4.08 4.2C3.86667 4.66667 3.76 5.09333 3.76 5.48C3.76 5.96 3.91333 6.37333 4.22 6.72C4.52667 7.05333 4.92 7.36 5.4 7.64C5.89333 7.92 6.40667 8.2 6.94 8.48C7.48667 8.76 8 9.07333 8.48 9.42C8.97333 9.76667 9.37333 10.18 9.68 10.66C9.98667 11.14 10.14 11.7267 10.14 12.42C10.14 13.1133 9.98 13.7267 9.66 14.26C9.35333 14.7933 8.93333 15.24 8.4 15.6C7.86667 15.9733 7.27333 16.2533 6.62 16.44C5.98 16.64 5.32667 16.74 4.66 16.74ZM13.3677 15.94C12.9277 15.94 12.5477 15.7933 12.2277 15.5C11.8943 15.2067 11.7277 14.7667 11.7277 14.18C11.7277 13.7133 11.8343 13.2067 12.0477 12.66C12.261 12.1133 12.5543 11.5733 12.9277 11.04C13.301 10.5067 13.7277 10.0267 14.2077 9.6C14.6877 9.16 15.201 8.80667 15.7477 8.54C16.2943 8.27333 16.841 8.14 17.3877 8.14C17.961 8.14 18.4477 8.28667 18.8477 8.58C19.2477 8.87333 19.4477 9.26 19.4477 9.74C19.4477 10.1 19.321 10.36 19.0677 10.52C18.8143 10.68 18.5143 10.7267 18.1677 10.66C18.1943 10.54 18.2143 10.42 18.2277 10.3C18.2543 10.18 18.2677 10.0533 18.2677 9.92C18.2677 9.65333 18.2143 9.41333 18.1077 9.2C18.001 8.98667 17.7743 8.88 17.4277 8.88C17.0543 8.88 16.6743 9.00667 16.2877 9.26C15.901 9.51333 15.5277 9.84667 15.1677 10.26C14.821 10.66 14.5077 11.1067 14.2277 11.6C13.9477 12.08 13.7277 12.5533 13.5677 13.02C13.4077 13.4867 13.3277 13.9067 13.3277 14.28C13.3277 14.7067 13.481 14.92 13.7877 14.92C14.0943 14.92 14.4343 14.7733 14.8077 14.48C15.181 14.1733 15.5543 13.7933 15.9277 13.34C16.3143 12.8867 16.681 12.4267 17.0277 11.96C17.3743 11.48 17.6743 11.0733 17.9277 10.74C17.9677 10.6733 18.021 10.64 18.0877 10.64C18.141 10.6533 18.241 10.6867 18.3877 10.74C18.5477 10.78 18.6943 10.8467 18.8277 10.94C18.961 11.0333 19.0277 11.1533 19.0277 11.3C19.0277 11.4333 18.9677 11.6067 18.8477 11.82C18.741 12.02 18.6077 12.2467 18.4477 12.5C18.301 12.74 18.1677 12.9867 18.0477 13.24C17.941 13.48 17.8877 13.7133 17.8877 13.94C17.8877 14.1133 17.9343 14.28 18.0277 14.44C18.121 14.5867 18.2743 14.66 18.4877 14.66C18.8077 14.66 19.2543 14.4267 19.8277 13.96C20.4143 13.48 21.0077 12.6733 21.6077 11.54L21.9877 11.92C21.6677 12.64 21.281 13.28 20.8277 13.84C20.3877 14.3867 19.921 14.8133 19.4277 15.12C18.9343 15.44 18.4343 15.6 17.9277 15.6C17.381 15.6 16.9743 15.4267 16.7077 15.08C16.441 14.7333 16.2943 14.36 16.2677 13.96C16.2677 13.9333 16.2677 13.9133 16.2677 13.9C16.2677 13.8867 16.2677 13.8733 16.2677 13.86C15.7343 14.5 15.241 15.0067 14.7877 15.38C14.3477 15.7533 13.8743 15.94 13.3677 15.94ZM23.5144 15.78C23.021 15.78 22.6744 15.5533 22.4744 15.1C22.2877 14.66 22.1944 14.0867 22.1944 13.38C22.1944 13.2333 22.201 12.9733 22.2144 12.6C22.2277 12.2133 22.2477 11.68 22.2744 11C22.2877 10.6 22.3277 10.3267 22.3944 10.18C22.4744 10.0333 22.6877 9.96 23.0344 9.96C23.3544 9.96 23.541 10.0267 23.5944 10.16C23.661 10.28 23.6944 10.5333 23.6944 10.92C23.6944 11.32 23.6744 11.7467 23.6344 12.2C23.6077 12.6533 23.5944 13.0933 23.5944 13.52C23.5944 13.9333 23.6144 14.24 23.6544 14.44C23.6944 14.6267 23.7944 14.72 23.9544 14.72C24.1944 14.72 24.4544 14.5933 24.7344 14.34C25.0144 14.0733 25.2944 13.74 25.5744 13.34C25.8677 12.9267 26.141 12.4867 26.3944 12.02C26.661 11.54 26.8944 11.08 27.0944 10.64C27.121 9.73333 27.2277 9.12667 27.4144 8.82C27.601 8.51333 27.841 8.36 28.1344 8.36C28.4677 8.36 28.6944 8.46667 28.8144 8.68C28.9344 8.89333 28.9944 9.08 28.9944 9.24C28.9944 9.44 28.941 9.62 28.8344 9.78C28.7277 9.94 28.621 10.16 28.5144 10.44C28.4077 10.72 28.3544 11.1467 28.3544 11.72C28.3544 11.9067 28.3677 12.1133 28.3944 12.34C28.4344 12.5533 28.5144 12.74 28.6344 12.9C28.7677 13.0467 28.961 13.12 29.2144 13.12C29.481 13.12 29.7344 13.0133 29.9744 12.8C30.2277 12.5733 30.4944 12.1867 30.7744 11.64L30.9944 11.82C30.6877 12.5533 30.341 13.0667 29.9544 13.36C29.581 13.6533 29.221 13.8 28.8744 13.8C28.4344 13.8 28.0744 13.6267 27.7944 13.28C27.5277 12.92 27.321 12.4733 27.1744 11.94C26.8544 12.54 26.4877 13.1333 26.0744 13.72C25.6744 14.3067 25.2544 14.7933 24.8144 15.18C24.3744 15.58 23.941 15.78 23.5144 15.78ZM33.4575 15.88C32.6042 15.88 31.9442 15.6467 31.4775 15.18C31.0242 14.7267 30.7975 14.1533 30.7975 13.46C30.7975 12.8733 30.9442 12.2533 31.2375 11.6C31.5442 10.9333 31.9508 10.3133 32.4575 9.74C32.9642 9.15333 33.5242 8.68 34.1375 8.32C34.7508 7.96 35.3642 7.78 35.9775 7.78C36.3242 7.78 36.6508 7.87333 36.9575 8.06C37.2775 8.23333 37.4375 8.58667 37.4375 9.12C37.4375 9.62667 37.2908 10.1 36.9975 10.54C36.7042 10.98 36.3108 11.3733 35.8175 11.72C35.3242 12.0667 34.7775 12.3533 34.1775 12.58C33.5908 12.7933 32.9975 12.9333 32.3975 13C32.3842 13.0533 32.3708 13.1133 32.3575 13.18C32.3575 13.2333 32.3575 13.3267 32.3575 13.46C32.3575 13.5267 32.3642 13.6467 32.3775 13.82C32.4042 13.98 32.4642 14.1533 32.5575 14.34C32.6508 14.5267 32.8042 14.6867 33.0175 14.82C33.2308 14.9533 33.5242 15.02 33.8975 15.02C34.4575 15.02 35.0175 14.8667 35.5775 14.56C36.1508 14.24 36.6842 13.82 37.1775 13.3C37.6842 12.78 38.1042 12.2 38.4375 11.56L38.8375 11.88C38.4775 12.68 38.0108 13.38 37.4375 13.98C36.8775 14.58 36.2508 15.0467 35.5575 15.38C34.8775 15.7133 34.1775 15.88 33.4575 15.88ZM32.6175 12.26C32.9642 12.22 33.3508 12.1 33.7775 11.9C34.2042 11.7 34.6108 11.4467 34.9975 11.14C35.3975 10.8333 35.7242 10.5 35.9775 10.14C36.2308 9.76667 36.3575 9.39333 36.3575 9.02C36.3575 8.87333 36.3308 8.77333 36.2775 8.72C36.2242 8.66667 36.1375 8.64 36.0175 8.64C35.7108 8.64 35.3908 8.75333 35.0575 8.98C34.7242 9.19333 34.3975 9.48 34.0775 9.84C33.7575 10.1867 33.4708 10.5733 33.2175 11C32.9642 11.4267 32.7642 11.8467 32.6175 12.26ZM49.6092 16.74C48.8759 16.74 48.3692 16.5933 48.0892 16.3C47.8092 16.02 47.6626 15.6533 47.6492 15.2C47.6492 14.8133 47.7226 14.3533 47.8692 13.82C48.0292 13.2733 48.1892 12.7533 48.3492 12.26C48.6692 11.3133 49.0026 10.38 49.3492 9.46C49.6959 8.54 50.0426 7.65333 50.3892 6.8C50.7492 5.94667 51.0892 5.13333 51.4092 4.36C51.7426 3.58667 52.0492 2.87333 52.3292 2.22C51.4226 2.23333 50.6359 2.26 49.9692 2.3C49.3159 2.34 48.7159 2.39333 48.1692 2.46C47.6226 2.51333 47.0559 2.59333 46.4692 2.7C46.5359 2.14 46.7959 1.71333 47.2492 1.42C47.7159 1.11333 48.3359 0.9 49.1092 0.779999C49.8826 0.659999 50.7692 0.599999 51.7692 0.599999C52.2892 0.599999 52.7759 0.613333 53.2292 0.639999C53.6959 0.653333 54.1359 0.68 54.5492 0.719999C54.9759 0.759999 55.3892 0.8 55.7892 0.84C56.6292 0.92 57.2959 0.973333 57.7892 0.999999C58.2959 1.02667 58.6559 1.04 58.8692 1.04C58.4692 1.41333 57.9626 1.68667 57.3492 1.86C56.7492 2.02 56.1159 2.12 55.4492 2.16C54.7826 2.2 54.1492 2.22 53.5492 2.22C52.9092 3.79333 52.3226 5.42667 51.7892 7.12C51.2559 8.81333 50.7626 10.4867 50.3092 12.14C50.1359 12.78 49.9892 13.3267 49.8692 13.78C49.7626 14.22 49.6826 14.6267 49.6292 15C49.5759 15.36 49.5492 15.7467 49.5492 16.16C49.5492 16.2267 49.5492 16.3 49.5492 16.38C49.5626 16.4733 49.5826 16.5933 49.6092 16.74ZM56.6325 15.76C56.3392 15.76 56.1258 15.5333 55.9925 15.08C55.8725 14.6267 55.8125 14.1 55.8125 13.5C55.8125 12.8867 55.9125 12.1467 56.1125 11.28C56.3258 10.4133 56.6058 9.5 56.9525 8.54C57.3125 7.58 57.7058 6.64 58.1325 5.72C58.5725 4.8 59.0192 3.96667 59.4725 3.22C59.9392 2.46 60.3792 1.85333 60.7925 1.4C61.2192 0.946666 61.5925 0.719999 61.9125 0.719999C62.1925 0.719999 62.4058 0.873332 62.5525 1.18C62.6992 1.48667 62.7725 1.80667 62.7725 2.14C62.7725 2.5 62.6858 2.94667 62.5125 3.48C62.3525 4 62.1258 4.56 61.8325 5.16C61.5392 5.76 61.1925 6.35333 60.7925 6.94C60.4058 7.51333 59.9792 8.04 59.5125 8.52C59.0592 9 58.5858 9.38667 58.0925 9.68C57.9192 10.1333 57.7792 10.56 57.6725 10.96C57.5792 11.3467 57.5125 11.7133 57.4725 12.06C57.4325 12.4067 57.4125 12.7467 57.4125 13.08C57.4125 13.1467 57.4125 13.22 57.4125 13.3C57.4258 13.3667 57.4325 13.4333 57.4325 13.5C57.4858 13.42 57.5725 13.2133 57.6925 12.88C57.8125 12.5467 57.9725 12.16 58.1725 11.72C58.3858 11.2667 58.6458 10.8267 58.9525 10.4C59.2592 9.96 59.6192 9.6 60.0325 9.32C60.4458 9.02667 60.9192 8.88 61.4525 8.88C61.9058 8.88 62.2592 8.98667 62.5125 9.2C62.7658 9.4 62.9458 9.65333 63.0525 9.96C63.1592 10.2533 63.2125 10.5533 63.2125 10.86C63.2125 11.2867 63.1392 11.6867 62.9925 12.06C62.8592 12.4333 62.7192 12.7867 62.5725 13.12C62.4392 13.44 62.3725 13.7467 62.3725 14.04C62.3725 14.28 62.4258 14.4467 62.5325 14.54C62.6392 14.6333 62.7658 14.68 62.9125 14.68C63.2058 14.68 63.5458 14.5333 63.9325 14.24C64.3325 13.9467 64.7258 13.56 65.1125 13.08C65.5125 12.5867 65.8525 12.0467 66.1325 11.46L66.4525 11.8C66.1458 12.4667 65.7858 13.08 65.3725 13.64C64.9592 14.2 64.5058 14.6467 64.0125 14.98C63.5192 15.3133 62.9858 15.48 62.4125 15.48C61.9058 15.48 61.5192 15.3467 61.2525 15.08C60.9858 14.8133 60.8525 14.48 60.8525 14.08C60.8525 13.8 60.8992 13.4933 60.9925 13.16C61.0992 12.8133 61.1992 12.4667 61.2925 12.12C61.3858 11.7733 61.4325 11.46 61.4325 11.18C61.4325 10.86 61.3592 10.64 61.2125 10.52C61.0792 10.4 60.9125 10.34 60.7125 10.34C60.3792 10.34 60.0792 10.4733 59.8125 10.74C59.5458 10.9933 59.3058 11.3267 59.0925 11.74C58.8792 12.1533 58.6792 12.5933 58.4925 13.06C58.3058 13.5133 58.1192 13.9467 57.9325 14.36C57.7458 14.7733 57.5458 15.1067 57.3325 15.36C57.1325 15.6267 56.8992 15.76 56.6325 15.76ZM58.5125 8.4C58.8592 8.09333 59.1925 7.72667 59.5125 7.3C59.8325 6.87333 60.1258 6.43333 60.3925 5.98C60.6725 5.51333 60.9125 5.06667 61.1125 4.64C61.3258 4.2 61.4925 3.80667 61.6125 3.46C61.7325 3.11333 61.7992 2.84667 61.8125 2.66C61.8125 2.64667 61.8125 2.64 61.8125 2.64C61.8125 2.62667 61.8125 2.61333 61.8125 2.6C61.7325 2.6 61.5592 2.76667 61.2925 3.1C61.0392 3.42 60.7392 3.86 60.3925 4.42C60.0592 4.96667 59.7192 5.58667 59.3725 6.28C59.0392 6.97333 58.7525 7.68 58.5125 8.4ZM68.8153 15.88C67.962 15.88 67.302 15.6467 66.8353 15.18C66.382 14.7267 66.1553 14.1533 66.1553 13.46C66.1553 12.8733 66.302 12.2533 66.5953 11.6C66.902 10.9333 67.3086 10.3133 67.8153 9.74C68.322 9.15333 68.882 8.68 69.4953 8.32C70.1086 7.96 70.722 7.78 71.3353 7.78C71.682 7.78 72.0086 7.87333 72.3153 8.06C72.6353 8.23333 72.7953 8.58667 72.7953 9.12C72.7953 9.62667 72.6486 10.1 72.3553 10.54C72.062 10.98 71.6686 11.3733 71.1753 11.72C70.682 12.0667 70.1353 12.3533 69.5353 12.58C68.9486 12.7933 68.3553 12.9333 67.7553 13C67.742 13.0533 67.7286 13.1133 67.7153 13.18C67.7153 13.2333 67.7153 13.3267 67.7153 13.46C67.7153 13.5267 67.722 13.6467 67.7353 13.82C67.762 13.98 67.822 14.1533 67.9153 14.34C68.0086 14.5267 68.162 14.6867 68.3753 14.82C68.5886 14.9533 68.882 15.02 69.2553 15.02C69.8153 15.02 70.3753 14.8667 70.9353 14.56C71.5086 14.24 72.042 13.82 72.5353 13.3C73.042 12.78 73.462 12.2 73.7953 11.56L74.1953 11.88C73.8353 12.68 73.3686 13.38 72.7953 13.98C72.2353 14.58 71.6086 15.0467 70.9153 15.38C70.2353 15.7133 69.5353 15.88 68.8153 15.88ZM67.9753 12.26C68.322 12.22 68.7086 12.1 69.1353 11.9C69.562 11.7 69.9686 11.4467 70.3553 11.14C70.7553 10.8333 71.082 10.5 71.3353 10.14C71.5886 9.76667 71.7153 9.39333 71.7153 9.02C71.7153 8.87333 71.6886 8.77333 71.6353 8.72C71.582 8.66667 71.4953 8.64 71.3753 8.64C71.0686 8.64 70.7486 8.75333 70.4153 8.98C70.082 9.19333 69.7553 9.48 69.4353 9.84C69.1153 10.1867 68.8286 10.5733 68.5753 11C68.322 11.4267 68.122 11.8467 67.9753 12.26ZM85.227 16.74C85.0937 16.74 84.9204 16.72 84.707 16.68C84.4937 16.64 84.2737 16.56 84.047 16.44C83.8337 16.3333 83.6537 16.16 83.507 15.92C83.3604 15.68 83.287 15.36 83.287 14.96C83.287 14.6267 83.3537 14.1933 83.487 13.66C83.6204 13.1133 83.847 12.32 84.167 11.28C84.407 10.4933 84.6404 9.72 84.867 8.96C85.107 8.18667 85.3004 7.38667 85.447 6.56C85.607 5.73333 85.687 4.85333 85.687 3.92C85.687 3.37333 85.6537 2.91333 85.587 2.54C85.5204 2.16667 85.3937 1.88667 85.207 1.7C85.0337 1.5 84.787 1.4 84.467 1.4C84.147 1.4 83.867 1.48667 83.627 1.66C83.387 1.83333 83.187 2.06667 83.027 2.36C82.867 2.64 82.747 2.95333 82.667 3.3C82.587 3.64667 82.547 3.99333 82.547 4.34C82.547 4.92667 82.647 5.41333 82.847 5.8C82.1937 5.8 81.7204 5.64667 81.427 5.34C81.1337 5.03333 80.987 4.65333 80.987 4.2C80.987 3.8 81.087 3.38667 81.287 2.96C81.487 2.53333 81.7604 2.14667 82.107 1.8C82.467 1.44 82.8804 1.15333 83.347 0.94C83.8137 0.713333 84.3137 0.599999 84.847 0.599999C85.7537 0.599999 86.4404 0.933333 86.907 1.6C87.387 2.26667 87.627 3.21333 87.627 4.44C87.627 5.36 87.5004 6.32 87.247 7.32C87.007 8.30667 86.7004 9.38667 86.327 10.56C86.1937 10.9867 86.0337 11.46 85.847 11.98C85.6737 12.4867 85.5137 13.0133 85.367 13.56C85.2337 14.0933 85.167 14.6267 85.167 15.16C85.167 15.4133 85.1937 15.5867 85.247 15.68C85.3137 15.7867 85.4337 15.84 85.607 15.84C85.967 15.84 86.347 15.6867 86.747 15.38C87.1604 15.0733 87.5737 14.66 87.987 14.14C88.4004 13.62 88.7937 13.04 89.167 12.4C89.5537 11.76 89.907 11.1067 90.227 10.44C90.547 9.76 90.8137 9.12 91.027 8.52C91.2404 7.90667 91.3804 7.37333 91.447 6.92C91.9537 6.92 92.347 7.06 92.627 7.34C92.907 7.62 93.047 7.88667 93.047 8.14C93.047 8.27333 92.987 8.5 92.867 8.82C92.7604 9.14 92.5737 9.61333 92.307 10.24C92.0937 10.7467 91.8737 11.2867 91.647 11.86C91.4204 12.42 91.227 12.98 91.067 13.54C90.9204 14.0867 90.847 14.6 90.847 15.08C90.847 15.3467 90.8804 15.54 90.947 15.66C91.027 15.78 91.167 15.84 91.367 15.84C91.7404 15.84 92.167 15.6533 92.647 15.28C93.1404 14.92 93.647 14.4267 94.167 13.8C94.687 13.16 95.1937 12.4467 95.687 11.66C96.1804 10.86 96.627 10.0333 97.027 9.18C97.427 8.32667 97.7404 7.48667 97.967 6.66C98.207 5.83333 98.327 5.08 98.327 4.4C98.327 3.66667 98.1937 3.14667 97.927 2.84C97.6737 2.53333 97.3537 2.31333 96.967 2.18C97.207 1.79333 97.4604 1.51333 97.727 1.34C98.007 1.15333 98.2537 1.06 98.467 1.06C98.7737 1.06 99.087 1.26 99.407 1.66C99.7404 2.04667 99.907 2.66 99.907 3.5C99.907 4.20667 99.767 5.02 99.487 5.94C99.2204 6.86 98.847 7.82 98.367 8.82C97.9004 9.80667 97.3604 10.7733 96.747 11.72C96.147 12.6533 95.5004 13.5 94.807 14.26C94.127 15.02 93.4404 15.62 92.747 16.06C92.0537 16.5133 91.3937 16.74 90.767 16.74C90.4204 16.74 90.107 16.6667 89.827 16.52C89.5604 16.3867 89.347 16.1867 89.187 15.92C89.0404 15.6667 88.967 15.3667 88.967 15.02C88.967 14.86 88.987 14.6933 89.027 14.52C89.067 14.3467 89.1137 14.1733 89.167 14C88.5137 14.8267 87.8537 15.4867 87.187 15.98C86.5337 16.4867 85.8804 16.74 85.227 16.74ZM108.961 15.98C108.147 15.98 107.521 15.76 107.081 15.32C106.641 14.8933 106.387 14.3733 106.321 13.76C105.747 14.4267 105.094 14.9467 104.361 15.32C103.627 15.6933 102.887 15.88 102.141 15.88C101.274 15.88 100.607 15.6467 100.141 15.18C99.6874 14.7267 99.4608 14.16 99.4608 13.48C99.4608 12.8933 99.6074 12.2733 99.9008 11.62C100.207 10.9667 100.614 10.3533 101.121 9.78C101.627 9.19333 102.187 8.72 102.801 8.36C103.414 7.98667 104.041 7.8 104.681 7.8C105.027 7.8 105.347 7.88667 105.641 8.06C105.947 8.23333 106.101 8.58667 106.101 9.12C106.101 9.61333 105.954 10.08 105.661 10.52C105.367 10.9467 104.974 11.3267 104.481 11.66C103.987 11.9933 103.441 12.2667 102.841 12.48C102.254 12.6933 101.661 12.8333 101.061 12.9C101.047 12.9533 101.034 13.0267 101.021 13.12C101.021 13.2 101.021 13.2933 101.021 13.4C101.021 13.64 101.061 13.8867 101.141 14.14C101.221 14.38 101.367 14.5867 101.581 14.76C101.807 14.9333 102.141 15.02 102.581 15.02C103.287 15.02 103.974 14.7933 104.641 14.34C105.321 13.8733 105.914 13.2933 106.421 12.6C106.541 12.0533 106.754 11.5133 107.061 10.98C107.367 10.4467 107.741 9.96 108.181 9.52C108.634 9.08 109.121 8.72667 109.641 8.46C110.174 8.19333 110.714 8.06 111.261 8.06C111.621 8.06 111.947 8.14667 112.241 8.32C112.547 8.49333 112.701 8.85333 112.701 9.4C112.701 10.0533 112.467 10.6333 112.001 11.14C111.547 11.6467 110.954 12.06 110.221 12.38C109.501 12.6867 108.734 12.8867 107.921 12.98C107.907 13.0467 107.894 13.12 107.881 13.2C107.881 13.2667 107.881 13.3533 107.881 13.46C107.881 13.7 107.914 13.9467 107.981 14.2C108.061 14.4533 108.207 14.6733 108.421 14.86C108.634 15.0333 108.954 15.12 109.381 15.12C109.954 15.12 110.527 14.9533 111.101 14.62C111.687 14.2867 112.227 13.8533 112.721 13.32C113.227 12.7733 113.641 12.1867 113.961 11.56L114.321 11.84C113.961 12.64 113.494 13.3533 112.921 13.98C112.361 14.5933 111.741 15.08 111.061 15.44C110.381 15.8 109.681 15.98 108.961 15.98ZM101.281 12.26C101.654 12.1267 102.047 11.9533 102.461 11.74C102.887 11.5133 103.287 11.26 103.661 10.98C104.047 10.6867 104.361 10.38 104.601 10.06C104.841 9.72667 104.961 9.38667 104.961 9.04C104.961 8.93333 104.934 8.85333 104.881 8.8C104.841 8.73333 104.747 8.7 104.601 8.7C104.321 8.7 104.014 8.80667 103.681 9.02C103.361 9.22 103.041 9.49333 102.721 9.84C102.414 10.1867 102.134 10.5733 101.881 11C101.627 11.4133 101.427 11.8333 101.281 12.26ZM108.141 12.26C108.487 12.14 108.854 11.9933 109.241 11.82C109.641 11.6333 110.014 11.42 110.361 11.18C110.707 10.94 110.994 10.6733 111.221 10.38C111.447 10.0733 111.561 9.74 111.561 9.38C111.561 9.22 111.534 9.11333 111.481 9.06C111.427 8.99333 111.327 8.96 111.181 8.96C110.807 8.96 110.421 9.12 110.021 9.44C109.621 9.74667 109.254 10.1533 108.921 10.66C108.587 11.1533 108.327 11.6867 108.141 12.26ZM120.674 15.76C120.26 15.76 119.9 15.6267 119.594 15.36C119.287 15.0933 119.04 14.76 118.854 14.36C118.667 13.96 118.527 13.5533 118.434 13.14C118.34 12.7133 118.294 12.3467 118.294 12.04C118.48 12 118.714 11.94 118.994 11.86C119.274 11.78 119.56 11.6733 119.854 11.54C120.147 11.3933 120.387 11.22 120.574 11.02C120.774 10.8067 120.874 10.5533 120.874 10.26C120.874 10.02 120.794 9.82667 120.634 9.68C120.487 9.53333 120.274 9.46 119.994 9.46C119.62 9.46 119.267 9.58667 118.934 9.84C118.6 10.08 118.287 10.4 117.994 10.8C117.714 11.2 117.454 11.6333 117.214 12.1C116.987 12.5667 116.78 13.02 116.594 13.46C116.42 13.9 116.274 14.28 116.154 14.6C116.007 15 115.867 15.2667 115.734 15.4C115.6 15.5467 115.407 15.62 115.154 15.62C115.06 15.62 114.947 15.5933 114.814 15.54C114.694 15.4867 114.587 15.3533 114.494 15.14C114.414 14.9267 114.374 14.5867 114.374 14.12C114.374 13.3067 114.487 12.4133 114.714 11.44C114.94 10.4667 115.24 9.48 115.614 8.48C116 7.46667 116.42 6.5 116.874 5.58C117.327 4.66 117.787 3.83333 118.254 3.1C118.72 2.36667 119.154 1.78667 119.554 1.36C119.967 0.933332 120.307 0.719999 120.574 0.719999C120.8 0.719999 120.987 0.859999 121.134 1.14C121.294 1.40667 121.374 1.75333 121.374 2.18C121.374 2.63333 121.274 3.14 121.074 3.7C120.874 4.24667 120.587 4.80667 120.214 5.38C119.854 5.94 119.42 6.47333 118.914 6.98C118.407 7.48667 117.847 7.92 117.234 8.28C116.86 9.14667 116.574 10.0067 116.374 10.86C116.174 11.7 116.047 12.4467 115.994 13.1C116.234 12.5533 116.507 11.9933 116.814 11.42C117.12 10.8467 117.46 10.3133 117.834 9.82C118.207 9.31333 118.607 8.90667 119.034 8.6C119.474 8.29333 119.94 8.14 120.434 8.14C120.967 8.14 121.434 8.32667 121.834 8.7C122.234 9.07333 122.434 9.54 122.434 10.1C122.434 10.5 122.327 10.8467 122.114 11.14C121.9 11.4333 121.634 11.68 121.314 11.88C121.007 12.0667 120.694 12.2067 120.374 12.3C120.054 12.3933 119.78 12.4467 119.554 12.46C119.594 12.6333 119.647 12.8533 119.714 13.12C119.794 13.3867 119.894 13.6467 120.014 13.9C120.134 14.1533 120.287 14.3667 120.474 14.54C120.66 14.7133 120.88 14.8 121.134 14.8C121.467 14.8 121.807 14.6467 122.154 14.34C122.514 14.0333 122.86 13.6267 123.194 13.12C123.54 12.6133 123.847 12.0533 124.114 11.44L124.394 11.78C124.167 12.4467 123.854 13.0867 123.454 13.7C123.067 14.3133 122.634 14.8067 122.154 15.18C121.674 15.5667 121.18 15.76 120.674 15.76ZM117.814 6.92C118.174 6.6 118.554 6.20667 118.954 5.74C119.354 5.26 119.694 4.75333 119.974 4.22C120.267 3.67333 120.42 3.15333 120.434 2.66C120.434 2.64667 120.434 2.64 120.434 2.64C120.434 2.62667 120.434 2.61333 120.434 2.6C120.3 2.65333 120.087 2.88667 119.794 3.3C119.514 3.7 119.2 4.21333 118.854 4.84C118.507 5.46667 118.16 6.16 117.814 6.92ZM126.792 15.88C125.939 15.88 125.279 15.6467 124.812 15.18C124.359 14.7267 124.132 14.1533 124.132 13.46C124.132 12.8733 124.279 12.2533 124.572 11.6C124.879 10.9333 125.285 10.3133 125.792 9.74C126.299 9.15333 126.859 8.68 127.472 8.32C128.085 7.96 128.699 7.78 129.312 7.78C129.659 7.78 129.985 7.87333 130.292 8.06C130.612 8.23333 130.772 8.58667 130.772 9.12C130.772 9.62667 130.625 10.1 130.332 10.54C130.039 10.98 129.645 11.3733 129.152 11.72C128.659 12.0667 128.112 12.3533 127.512 12.58C126.925 12.7933 126.332 12.9333 125.732 13C125.719 13.0533 125.705 13.1133 125.692 13.18C125.692 13.2333 125.692 13.3267 125.692 13.46C125.692 13.5267 125.699 13.6467 125.712 13.82C125.739 13.98 125.799 14.1533 125.892 14.34C125.985 14.5267 126.139 14.6867 126.352 14.82C126.565 14.9533 126.859 15.02 127.232 15.02C127.792 15.02 128.352 14.8667 128.912 14.56C129.485 14.24 130.019 13.82 130.512 13.3C131.019 12.78 131.439 12.2 131.772 11.56L132.172 11.88C131.812 12.68 131.345 13.38 130.772 13.98C130.212 14.58 129.585 15.0467 128.892 15.38C128.212 15.7133 127.512 15.88 126.792 15.88ZM125.952 12.26C126.299 12.22 126.685 12.1 127.112 11.9C127.539 11.7 127.945 11.4467 128.332 11.14C128.732 10.8333 129.059 10.5 129.312 10.14C129.565 9.76667 129.692 9.39333 129.692 9.02C129.692 8.87333 129.665 8.77333 129.612 8.72C129.559 8.66667 129.472 8.64 129.352 8.64C129.045 8.64 128.725 8.75333 128.392 8.98C128.059 9.19333 127.732 9.48 127.412 9.84C127.092 10.1867 126.805 10.5733 126.552 11C126.299 11.4267 126.099 11.8467 125.952 12.26ZM138.928 15.4C138.408 15.4 138.008 15.2667 137.728 15C137.462 14.7467 137.328 14.42 137.328 14.02C137.328 13.7533 137.375 13.4733 137.468 13.18C137.562 12.8733 137.655 12.5667 137.748 12.26C137.842 11.9533 137.888 11.66 137.888 11.38C137.888 11.0867 137.815 10.8867 137.668 10.78C137.535 10.66 137.375 10.6 137.188 10.6C136.788 10.6 136.375 10.7667 135.948 11.1C135.535 11.42 135.128 11.8267 134.728 12.32C134.342 12.8133 133.975 13.3267 133.628 13.86C133.282 14.3933 132.982 14.8733 132.728 15.3C132.475 15.3 132.235 15.2533 132.008 15.16C131.782 15.08 131.588 14.9333 131.428 14.72C131.442 14.6533 131.522 14.4533 131.668 14.12C131.802 13.7733 131.955 13.3667 132.128 12.9C132.302 12.42 132.455 11.92 132.588 11.4C132.722 10.88 132.788 10.4067 132.788 9.98C132.882 9.87333 133.022 9.76667 133.208 9.66C133.408 9.55333 133.615 9.5 133.828 9.5C134.295 9.5 134.528 9.7 134.528 10.1C134.528 10.26 134.495 10.5 134.428 10.82C134.375 11.1267 134.295 11.48 134.188 11.88C134.535 11.4133 134.915 10.9733 135.328 10.56C135.742 10.1467 136.168 9.81333 136.608 9.56C137.062 9.29333 137.515 9.16 137.968 9.16C138.542 9.16 138.962 9.35333 139.228 9.74C139.508 10.1267 139.648 10.5533 139.648 11.02C139.648 11.42 139.582 11.7933 139.448 12.14C139.315 12.4867 139.182 12.8133 139.048 13.12C138.928 13.4267 138.868 13.7267 138.868 14.02C138.868 14.2333 138.915 14.3867 139.008 14.48C139.115 14.56 139.228 14.6 139.348 14.6C139.668 14.6 140.002 14.4467 140.348 14.14C140.695 13.8333 141.022 13.4467 141.328 12.98C141.648 12.5 141.928 12.02 142.168 11.54L142.508 11.82C142.228 12.4733 141.908 13.0733 141.548 13.62C141.202 14.1533 140.808 14.5867 140.368 14.92C139.942 15.24 139.462 15.4 138.928 15.4ZM143.921 15.6C143.668 15.6 143.408 15.5333 143.141 15.4C142.888 15.28 142.675 15.0867 142.501 14.82C142.315 14.5533 142.221 14.2133 142.221 13.8C142.221 13.36 142.328 12.8667 142.541 12.32C142.755 11.7733 143.041 11.2267 143.401 10.68C143.775 10.1333 144.201 9.63333 144.681 9.18C145.175 8.72667 145.695 8.36 146.241 8.08C146.788 7.8 147.341 7.66 147.901 7.66C148.208 7.66 148.448 7.71333 148.621 7.82C148.795 7.91333 148.881 8.07333 148.881 8.3C148.881 8.36667 148.868 8.44667 148.841 8.54C148.815 8.62 148.748 8.69333 148.641 8.76C148.588 8.68 148.495 8.62667 148.361 8.6C148.228 8.56 148.088 8.54 147.941 8.54C147.501 8.54 147.081 8.66667 146.681 8.92C146.281 9.16 145.915 9.47333 145.581 9.86C145.248 10.2467 144.955 10.6667 144.701 11.12C144.461 11.5733 144.275 12.0133 144.141 12.44C144.008 12.8533 143.941 13.2133 143.941 13.52C143.941 13.7733 143.995 13.98 144.101 14.14C144.208 14.2867 144.368 14.36 144.581 14.36C144.941 14.36 145.368 14.1533 145.861 13.74C146.368 13.3133 146.881 12.7067 147.401 11.92C147.935 11.12 148.415 10.1667 148.841 9.06C149.135 8.3 149.441 7.52667 149.761 6.74C150.081 5.94 150.401 5.17333 150.721 4.44C151.041 3.70667 151.355 3.05333 151.661 2.48C151.981 1.90667 152.281 1.45333 152.561 1.12C152.855 0.773333 153.121 0.599999 153.361 0.599999C153.508 0.599999 153.635 0.659999 153.741 0.779999C153.861 0.886666 153.921 1.02667 153.921 1.2C153.921 1.42667 153.808 1.79333 153.581 2.3C153.368 2.79333 153.088 3.38667 152.741 4.08C152.408 4.77333 152.041 5.52667 151.641 6.34C151.255 7.14 150.888 7.96667 150.541 8.82C150.208 9.66 149.928 10.4933 149.701 11.32C149.488 12.1333 149.381 12.9 149.381 13.62C149.381 13.94 149.408 14.16 149.461 14.28C149.528 14.3867 149.635 14.44 149.781 14.44C150.075 14.44 150.401 14.3267 150.761 14.1C151.121 13.8733 151.488 13.54 151.861 13.1C152.235 12.6467 152.575 12.1067 152.881 11.48L153.261 11.8C152.968 12.5333 152.595 13.18 152.141 13.74C151.688 14.3 151.201 14.7333 150.681 15.04C150.161 15.36 149.648 15.52 149.141 15.52C148.595 15.52 148.215 15.3467 148.001 15C147.788 14.6533 147.681 14.2467 147.681 13.78C147.681 13.5667 147.695 13.3533 147.721 13.14C147.761 12.9133 147.801 12.6933 147.841 12.48C147.428 13.08 146.988 13.62 146.521 14.1C146.068 14.5667 145.621 14.9333 145.181 15.2C144.741 15.4667 144.321 15.6 143.921 15.6Z" fill="#4E6E77"/>
</svg>
